<svg height="512" viewBox="0 0 64 64" width="512" xmlns="http://www.w3.org/2000/svg"><g id="calculator-money-bank-financial"><path d="m59 32v27a2 2 0 0 1 -2 2h-25a2.006 2.006 0 0 1 -2-2v-27a2.006 2.006 0 0 1 2-2h25a2.006 2.006 0 0 1 2 2z" fill="#636263"/><g fill="#b7c1cd"><path d="m33 52h5v5h-5z"/><path d="m33 44h5v5h-5z"/><path d="m51 44h5v13h-5z"/><path d="m42 44h5v5h-5z"/><path d="m42 52h5v5h-5z"/><path d="m33 33h23v7h-23z"/></g><path d="m3 35h27v24h-27z" fill="#499f96"/><path d="m30 38v18h-19a4 4 0 0 0 -4-4v-10a4 4 0 0 0 4-4z" fill="#6fc991"/><circle cx="22" cy="47" fill="#e9656c" r="8"/><circle cx="15" cy="16" fill="#fae058" r="7"/><path d="m8 23h14v4h-14z" fill="#f6c850"/><path d="m6 31h14v4h-14z" fill="#f6c850"/><path d="m11 27h14v4h-14z" fill="#fae058"/><path d="m60 15v3h-2-4-2v-3z" fill="#ececec"/><path d="m54 18h4v13h-4z" fill="#898890"/><path d="m42 18h4v13h-4z" fill="#898890"/><path d="m48 15v3h-2-4-2v-3z" fill="#ececec"/><path d="m30 18h4v13h-4z" fill="#898890"/><path d="m61 11v4h-1-8-4-8-4-8-1v-4z" fill="#898890"/><path d="m61 8v3h-34v-3l17-5z" fill="#b7c1cd"/><path d="m36 15v3h-2-4-2v-3z" fill="#ececec"/><path d="m56 32h-23a1 1 0 0 0 -1 1v7a1 1 0 0 0 1 1h23a1 1 0 0 0 1-1v-7a1 1 0 0 0 -1-1zm-1 7h-21v-5h21z"/><path d="m38 43h-5a1 1 0 0 0 -1 1v5a1 1 0 0 0 1 1h5a1 1 0 0 0 1-1v-5a1 1 0 0 0 -1-1zm-1 5h-3v-3h3z"/><path d="m47 43h-5a1 1 0 0 0 -1 1v5a1 1 0 0 0 1 1h5a1 1 0 0 0 1-1v-5a1 1 0 0 0 -1-1zm-1 5h-3v-3h3z"/><path d="m38 51h-5a1 1 0 0 0 -1 1v5a1 1 0 0 0 1 1h5a1 1 0 0 0 1-1v-5a1 1 0 0 0 -1-1zm-1 5h-3v-3h3z"/><path d="m47 51h-5a1 1 0 0 0 -1 1v5a1 1 0 0 0 1 1h5a1 1 0 0 0 1-1v-5a1 1 0 0 0 -1-1zm-1 5h-3v-3h3z"/><path d="m56 43h-5a1 1 0 0 0 -1 1v13a1 1 0 0 0 1 1h5a1 1 0 0 0 1-1v-13a1 1 0 0 0 -1-1zm-1 13h-3v-11h3z"/><path d="m51 36h2v2h-2z"/><path d="m47 36h2v2h-2z"/><path d="m61.28 7.04-17-5a1.064 1.064 0 0 0 -.56 0l-17 5a1 1 0 0 0 -.72.96v7a1 1 0 0 0 1 1v2a1 1 0 0 0 1 1h1v15h-8v-2h4a1 1 0 0 0 1-1v-4a1 1 0 0 0 -1-1h-2v-3a1 1 0 0 0 -1-1h-1.73a8 8 0 1 0 -10.54 0h-1.73a1 1 0 0 0 -1 1v4a1 1 0 0 0 1 1h2v2h-4a1 1 0 0 0 -1 1v3h-2a1 1 0 0 0 -1 1v24a1 1 0 0 0 1 1h26.18a3.01 3.01 0 0 0 2.82 2h25a3.009 3.009 0 0 0 3-3v-27a2.986 2.986 0 0 0 -1-2.22v-10.78h1a1 1 0 0 0 1-1v-2a1 1 0 0 0 1-1v-7a1 1 0 0 0 -.72-.96zm-37.28 20.96v2h-12v-2zm-15-12a6 6 0 1 1 6 6 6 6 0 0 1 -6-6zm0 10v-2h12v2zm-2 6h12v2h-12zm22 23h-2.9a8.977 8.977 0 0 0 2.9-2.36zm-7-1a7 7 0 1 1 7-7 7.008 7.008 0 0 1 -7 7zm-4.1 1h-6a5.01 5.01 0 0 0 -3.9-3.9v-8.2a5.01 5.01 0 0 0 3.9-3.9h6a8.981 8.981 0 0 0 0 16zm11.1-13.64a8.977 8.977 0 0 0 -2.9-2.36h2.9zm0-4.36h-18a1 1 0 0 0 -1 1 3.009 3.009 0 0 1 -3 3 1 1 0 0 0 -1 1v10a1 1 0 0 0 1 1 3.009 3.009 0 0 1 3 3 1 1 0 0 0 1 1h18v1h-25v-22h25zm0-20v-1h6v1zm11 2h1v10h-6v-10h1a1 1 0 0 0 1-1v-2h2v2a1 1 0 0 0 1 1zm-7 0v10h-1a3 3 0 0 0 -1 .18v-10.18zm25 40a1 1 0 0 1 -1 1h-25a1 1 0 0 1 -1-1v-27a1 1 0 0 1 1-1h25a1 1 0 0 1 1 1zm-6-40h1v10h-6v-10h1a1 1 0 0 0 1-1v-2h2v2a1 1 0 0 0 1 1zm-5-2h-6v-1h6zm-2 2v10h-2v-10zm10 10v-10h2v10zm4-12h-6v-1h6zm1-3h-32v-2h32zm0-4h-32v-1.25l16-4.71 16 4.71z"/><path d="m26 49a3.009 3.009 0 0 1 -3 3v1h-2v-1a3.009 3.009 0 0 1 -3-3h2a1 1 0 0 0 1 1h2a1 1 0 0 0 0-2h-2a3 3 0 0 1 0-6v-1h2v1a3.009 3.009 0 0 1 3 3h-2a1 1 0 0 0 -1-1h-2a1 1 0 0 0 0 2h2a3.009 3.009 0 0 1 3 3z"/><path d="m43 6h2v2h-2z"/><path d="m18 17.5a2.5 2.5 0 0 1 -2 2.45v1.05h-2v-1.05a2.5 2.5 0 0 1 -2-2.45h2a.5.5 0 0 0 .5.5h1a.5.5 0 0 0 0-1h-1a2.5 2.5 0 0 1 -.5-4.95v-1.05h2v1.05a2.5 2.5 0 0 1 2 2.45h-2a.5.5 0 0 0 -.5-.5h-1a.5.5 0 0 0 0 1h1a2.5 2.5 0 0 1 2.5 2.5z"/></g></svg>